<?xml version="1.0" encoding="UTF-8" standalone="no"?>
<!DOCTYPE svg PUBLIC "-//W3C//DTD SVG 1.1//EN"
 "http://www.w3.org/Graphics/SVG/1.1/DTD/svg11.dtd">
<!-- Generated by graphviz version 2.38.0 (20140413.2041)
 -->
<!-- Title: graphname Pages: 1 -->
<svg width="346pt" height="216pt"
 viewBox="0.00 0.00 346.35 216.00" xmlns="http://www.w3.org/2000/svg" xmlns:xlink="http://www.w3.org/1999/xlink">
<g id="graph0" class="graph" transform="scale(1 1) rotate(0) translate(4 212)">
<title>graphname</title>
<polygon fill="white" stroke="none" points="-4,4 -4,-212 342.348,-212 342.348,4 -4,4"/>
<!-- default -->
<g id="node1" class="node"><title>default</title>
<ellipse fill="none" stroke="black" cx="100.983" cy="-190" rx="34.8198" ry="18"/>
<text text-anchor="middle" x="100.983" y="-185.8" font-family="Times,serif" font-size="14.00">default</text>
</g>
<!-- greet -->
<g id="node2" class="node"><title>greet</title>
<ellipse fill="none" stroke="black" cx="100.983" cy="-18" rx="27.5633" ry="18"/>
<text text-anchor="middle" x="100.983" y="-13.8" font-family="Times,serif" font-size="14.00">greet</text>
</g>
<!-- default&#45;&gt;greet -->
<g id="edge1" class="edge"><title>default&#45;&gt;greet</title>
<path fill="none" stroke="black" d="M74.0012,-178.537C51.1249,-168.048 19.8219,-149.485 5.53476,-122 -1.84492,-107.804 -1.84492,-100.196 5.53476,-86 18.6897,-60.6935 46.2703,-42.9499 68.4164,-32.1089"/>
<polygon fill="black" stroke="black" points="69.9208,-35.2693 77.5169,-27.8835 66.9729,-28.9203 69.9208,-35.2693"/>
<text text-anchor="middle" x="19.2071" y="-99.8" font-family="Times,serif" font-size="14.00"> &#160;0s &#160;</text>
</g>
<!-- download_lua -->
<g id="node3" class="node"><title>download_lua</title>
<ellipse fill="none" stroke="black" cx="100.983" cy="-104" rx="60.4202" ry="18"/>
<text text-anchor="middle" x="100.983" y="-99.8" font-family="Times,serif" font-size="14.00">download_lua</text>
</g>
<!-- default&#45;&gt;download_lua -->
<g id="edge2" class="edge"><title>default&#45;&gt;download_lua</title>
<path fill="none" stroke="black" d="M100.983,-171.595C100.983,-160.257 100.983,-145.227 100.983,-132.315"/>
<polygon fill="black" stroke="black" points="104.483,-132.095 100.983,-122.095 97.4831,-132.095 104.483,-132.095"/>
<text text-anchor="middle" x="114.207" y="-142.8" font-family="Times,serif" font-size="14.00"> &#160;1s &#160;</text>
</g>
<!-- download_luarocks -->
<g id="node4" class="node"><title>download_luarocks</title>
<ellipse fill="none" stroke="black" cx="258.983" cy="-104" rx="79.2298" ry="18"/>
<text text-anchor="middle" x="258.983" y="-99.8" font-family="Times,serif" font-size="14.00">download_luarocks</text>
</g>
<!-- default&#45;&gt;download_luarocks -->
<g id="edge4" class="edge"><title>default&#45;&gt;download_luarocks</title>
<path fill="none" stroke="black" d="M124.296,-176.606C149.579,-163.164 190.344,-141.491 220.412,-125.506"/>
<polygon fill="black" stroke="black" points="222.185,-128.527 229.372,-120.743 218.899,-122.347 222.185,-128.527"/>
<text text-anchor="middle" x="203.207" y="-142.8" font-family="Times,serif" font-size="14.00"> &#160;5s &#160;</text>
</g>
<!-- download_lua&#45;&gt;greet -->
<g id="edge3" class="edge"><title>download_lua&#45;&gt;greet</title>
<path fill="none" stroke="black" d="M100.983,-85.5951C100.983,-74.2572 100.983,-59.2271 100.983,-46.3153"/>
<polygon fill="black" stroke="black" points="104.483,-46.0951 100.983,-36.0952 97.4831,-46.0952 104.483,-46.0951"/>
<text text-anchor="middle" x="114.207" y="-56.8" font-family="Times,serif" font-size="14.00"> &#160;0s &#160;</text>
</g>
<!-- download_luarocks&#45;&gt;greet -->
<g id="edge5" class="edge"><title>download_luarocks&#45;&gt;greet</title>
<path fill="none" stroke="black" d="M229.264,-87.2002C201.155,-72.2559 159.185,-49.943 130.984,-34.9496"/>
<polygon fill="black" stroke="black" points="132.46,-31.7707 121.987,-30.1668 129.174,-37.9515 132.46,-31.7707"/>
<text text-anchor="middle" x="203.207" y="-56.8" font-family="Times,serif" font-size="14.00"> &#160;0s &#160;</text>
</g>
</g>
</svg>
